<svg width="51" height="26" viewBox="0 0 51 26" fill="none" xmlns="http://www.w3.org/2000/svg">
<rect width="51" height="26" rx="13" fill="#272727"/>
<circle cx="13" cy="13" r="12" fill="white"/>
<path d="M36.0003 5.27733C36.0979 5.39595 36.1577 5.54112 36.1719 5.69407C36.1862 5.84703 36.1543 6.00075 36.0803 6.13537C35.5021 7.19689 35.2002 8.38676 35.2022 9.59551C35.2022 13.6167 38.4804 16.8728 42.5205 16.8728C43.0475 16.8728 43.5606 16.8178 44.0536 16.7128C44.2047 16.6801 44.3621 16.6926 44.5062 16.7488C44.6503 16.805 44.7746 16.9024 44.8636 17.0288C44.9576 17.1603 45.0055 17.3191 44.9999 17.4806C44.9943 17.6421 44.9355 17.7972 44.8326 17.9219C44.0483 18.8853 43.0588 19.6616 41.9363 20.1941C40.8139 20.7267 39.5867 21.002 38.3443 21C33.7342 21 30 17.2858 30 12.7096C30 9.2655 32.1141 6.31138 35.1242 5.05932C35.2742 4.99595 35.4406 4.98295 35.5986 5.02226C35.7566 5.06157 35.8975 5.15108 36.0003 5.27733Z" fill="black"/>
<path d="M40.7939 8.14746C40.8083 8.10415 40.8359 8.06646 40.8729 8.03975C40.9099 8.01304 40.9543 7.99866 40.9999 7.99866C41.0456 7.99866 41.09 8.01304 41.127 8.03975C41.164 8.06646 41.1916 8.10415 41.2059 8.14746L41.593 9.30951C41.766 9.82753 42.172 10.2335 42.69 10.4066L43.8521 10.7936C43.8954 10.8079 43.933 10.8355 43.9598 10.8725C43.9865 10.9095 44.0008 10.954 44.0008 10.9996C44.0008 11.0452 43.9865 11.0897 43.9598 11.1266C43.933 11.1636 43.8954 11.1912 43.8521 11.2056L42.69 11.5926C42.4345 11.6777 42.2024 11.8212 42.012 12.0116C41.8215 12.202 41.6781 12.4342 41.593 12.6896L41.2059 13.8517C41.1916 13.895 41.164 13.9327 41.127 13.9594C41.09 13.9861 41.0456 14.0005 40.9999 14.0005C40.9543 14.0005 40.9099 13.9861 40.8729 13.9594C40.8359 13.9327 40.8083 13.895 40.7939 13.8517L40.4069 12.6896C40.3218 12.4342 40.1783 12.202 39.9879 12.0116C39.7975 11.8212 39.5654 11.6777 39.3099 11.5926L38.1478 11.2056C38.1045 11.1912 38.0668 11.1636 38.0401 11.1266C38.0134 11.0897 37.999 11.0452 37.999 10.9996C37.999 10.954 38.0134 10.9095 38.0401 10.8725C38.0668 10.8355 38.1045 10.8079 38.1478 10.7936L39.3099 10.4066C39.5654 10.3214 39.7975 10.178 39.9879 9.98756C40.1783 9.79714 40.3218 9.56499 40.4069 9.30951L40.7939 8.14746ZM43.8631 5.09833C43.8729 5.06986 43.8914 5.04516 43.916 5.02769C43.9405 5.01021 43.9699 5.00082 44.0001 5.00082C44.0302 5.00082 44.0596 5.01021 44.0841 5.02769C44.1087 5.04516 44.1272 5.06986 44.1371 5.09833L44.3951 5.87236C44.5101 6.21838 44.7811 6.48939 45.1271 6.60439L45.9011 6.8624C45.9296 6.87228 45.9543 6.89078 45.9718 6.91533C45.9893 6.93988 45.9986 6.96927 45.9986 6.99941C45.9986 7.02955 45.9893 7.05894 45.9718 7.08349C45.9543 7.10804 45.9296 7.12654 45.9011 7.13642L45.1271 7.39443C44.9566 7.45115 44.8016 7.54685 44.6746 7.67392C44.5475 7.80099 44.4518 7.95594 44.3951 8.12646L44.1371 8.90049C44.1272 8.92896 44.1087 8.95366 44.0841 8.97113C44.0596 8.98861 44.0302 8.998 44.0001 8.998C43.9699 8.998 43.9405 8.98861 43.916 8.97113C43.8914 8.95366 43.8729 8.92896 43.8631 8.90049L43.605 8.12646C43.5483 7.95594 43.4526 7.80099 43.3256 7.67392C43.1985 7.54685 43.0435 7.45115 42.873 7.39443L42.099 7.13642C42.0705 7.12654 42.0458 7.10804 42.0283 7.08349C42.0109 7.05894 42.0015 7.02955 42.0015 6.99941C42.0015 6.96927 42.0109 6.93988 42.0283 6.91533C42.0458 6.89078 42.0705 6.87228 42.099 6.8624L42.873 6.60439C43.219 6.48939 43.49 6.21838 43.605 5.87236L43.8631 5.09933V5.09833Z" fill="black"/>
<path d="M13 16C12.2044 16 11.4413 15.6839 10.8787 15.1213C10.3161 14.5587 10 13.7956 10 13C10 12.2044 10.3161 11.4413 10.8787 10.8787C11.4413 10.3161 12.2044 10 13 10C13.7956 10 14.5587 10.3161 15.1213 10.8787C15.6839 11.4413 16 12.2044 16 13C16 13.7956 15.6839 14.5587 15.1213 15.1213C14.5587 15.6839 13.7956 16 13 16ZM13 17C14.0609 17 15.0783 16.5786 15.8284 15.8284C16.5786 15.0783 17 14.0609 17 13C17 11.9391 16.5786 10.9217 15.8284 10.1716C15.0783 9.42143 14.0609 9 13 9C11.9391 9 10.9217 9.42143 10.1716 10.1716C9.42143 10.9217 9 11.9391 9 13C9 14.0609 9.42143 15.0783 10.1716 15.8284C10.9217 16.5786 11.9391 17 13 17ZM13 5C13.1326 5 13.2598 5.05268 13.3536 5.14645C13.4473 5.24021 13.5 5.36739 13.5 5.5V7.5C13.5 7.63261 13.4473 7.75979 13.3536 7.85355C13.2598 7.94732 13.1326 8 13 8C12.8674 8 12.7402 7.94732 12.6464 7.85355C12.5527 7.75979 12.5 7.63261 12.5 7.5V5.5C12.5 5.36739 12.5527 5.24021 12.6464 5.14645C12.7402 5.05268 12.8674 5 13 5V5ZM13 18C13.1326 18 13.2598 18.0527 13.3536 18.1464C13.4473 18.2402 13.5 18.3674 13.5 18.5V20.5C13.5 20.6326 13.4473 20.7598 13.3536 20.8536C13.2598 20.9473 13.1326 21 13 21C12.8674 21 12.7402 20.9473 12.6464 20.8536C12.5527 20.7598 12.5 20.6326 12.5 20.5V18.5C12.5 18.3674 12.5527 18.2402 12.6464 18.1464C12.7402 18.0527 12.8674 18 13 18ZM21 13C21 13.1326 20.9473 13.2598 20.8536 13.3536C20.7598 13.4473 20.6326 13.5 20.5 13.5H18.5C18.3674 13.5 18.2402 13.4473 18.1464 13.3536C18.0527 13.2598 18 13.1326 18 13C18 12.8674 18.0527 12.7402 18.1464 12.6464C18.2402 12.5527 18.3674 12.5 18.5 12.5H20.5C20.6326 12.5 20.7598 12.5527 20.8536 12.6464C20.9473 12.7402 21 12.8674 21 13ZM8 13C8 13.1326 7.94732 13.2598 7.85355 13.3536C7.75979 13.4473 7.63261 13.5 7.5 13.5H5.5C5.36739 13.5 5.24021 13.4473 5.14645 13.3536C5.05268 13.2598 5 13.1326 5 13C5 12.8674 5.05268 12.7402 5.14645 12.6464C5.24021 12.5527 5.36739 12.5 5.5 12.5H7.5C7.63261 12.5 7.75979 12.5527 7.85355 12.6464C7.94732 12.7402 8 12.8674 8 13ZM18.657 7.343C18.7507 7.43676 18.8034 7.56392 18.8034 7.6965C18.8034 7.82908 18.7507 7.95624 18.657 8.05L17.243 9.465C17.1965 9.51142 17.1413 9.54823 17.0806 9.57333C17.0199 9.59843 16.9548 9.61132 16.8891 9.61128C16.7565 9.61118 16.6293 9.55839 16.5355 9.4645C16.4891 9.41801 16.4523 9.36284 16.4272 9.30212C16.4021 9.24141 16.3892 9.17634 16.3892 9.11065C16.3893 8.97796 16.4421 8.85075 16.536 8.757L17.95 7.343C18.0438 7.24926 18.1709 7.19661 18.3035 7.19661C18.4361 7.19661 18.5632 7.24926 18.657 7.343ZM9.464 16.536C9.55774 16.6298 9.61039 16.7569 9.61039 16.8895C9.61039 17.0221 9.55774 17.1492 9.464 17.243L8.05 18.657C7.9557 18.7481 7.8294 18.7985 7.6983 18.7973C7.5672 18.7962 7.44179 18.7436 7.34909 18.6509C7.25639 18.5582 7.2038 18.4328 7.20266 18.3017C7.20152 18.1706 7.25192 18.0443 7.343 17.95L8.757 16.536C8.85076 16.4423 8.97792 16.3896 9.1105 16.3896C9.24308 16.3896 9.37024 16.4423 9.464 16.536ZM18.657 18.657C18.5632 18.7507 18.4361 18.8034 18.3035 18.8034C18.1709 18.8034 18.0438 18.7507 17.95 18.657L16.536 17.243C16.4449 17.1487 16.3945 17.0224 16.3957 16.8913C16.3968 16.7602 16.4494 16.6348 16.5421 16.5421C16.6348 16.4494 16.7602 16.3968 16.8913 16.3957C17.0224 16.3945 17.1487 16.4449 17.243 16.536L18.657 17.95C18.7507 18.0438 18.8034 18.1709 18.8034 18.3035C18.8034 18.4361 18.7507 18.5632 18.657 18.657ZM9.464 9.465C9.37024 9.55874 9.24308 9.61139 9.1105 9.61139C8.97792 9.61139 8.85076 9.55874 8.757 9.465L7.343 8.05C7.29524 8.00388 7.25715 7.9487 7.23095 7.8877C7.20474 7.8267 7.19095 7.76109 7.19037 7.6947C7.1898 7.62831 7.20245 7.56247 7.22759 7.50102C7.25273 7.43957 7.28986 7.38375 7.3368 7.3368C7.38375 7.28986 7.43957 7.25273 7.50102 7.22759C7.56247 7.20245 7.62831 7.1898 7.6947 7.19037C7.76109 7.19095 7.8267 7.20474 7.8877 7.23095C7.9487 7.25715 8.00388 7.29524 8.05 7.343L9.464 8.757C9.51056 8.80345 9.54751 8.85862 9.57271 8.91937C9.59792 8.98011 9.61089 9.04523 9.61089 9.111C9.61089 9.17677 9.59792 9.24189 9.57271 9.30263C9.54751 9.36338 9.51056 9.41855 9.464 9.465Z" fill="black"/>
</svg>
